G04 #@! TF.GenerationSoftware,KiCad,Pcbnew,5.99.0-unknown-281d77f~86~ubuntu18.04.1*
G04 #@! TF.CreationDate,2019-09-26T15:53:55+01:00*
G04 #@! TF.ProjectId,gingham,67696e67-6861-46d2-9e6b-696361645f70,V1.0*
G04 #@! TF.SameCoordinates,Original*
G04 #@! TF.FileFunction,Legend,Bot*
G04 #@! TF.FilePolarity,Positive*
%FSLAX46Y46*%
G04 Gerber Fmt 4.6, Leading zero omitted, Abs format (unit mm)*
G04 Created by KiCad (PCBNEW 5.99.0-unknown-281d77f~86~ubuntu18.04.1) date 2019-09-26 15:53:55*
%MOMM*%
%LPD*%
G04 APERTURE LIST*
%ADD10O,2.000000X2.000000*%
%ADD11R,2.000000X2.000000*%
%ADD12C,2.650000*%
%ADD13C,2.650000*%
%ADD14C,4.387800*%
%ADD15C,2.150000*%
%ADD16O,1.500000X2.050000*%
%ADD17O,2.100000X3.100000*%
%ADD18C,3.448000*%
%ADD19C,2.101800*%
%ADD20C,4.200000*%
%ADD21R,1.600000X1.600000*%
%ADD22C,1.600000*%
%ADD23C,2.000000*%
%ADD24R,2.100000X2.100000*%
%ADD25O,2.100000X2.100000*%
%ADD26C,2.200000*%
%ADD27R,2.200000X2.200000*%
%ADD28C,1.800000*%
%ADD29O,1.800000X1.800000*%
%ADD30C,2.400000*%
%ADD31C,1.900000*%
G04 APERTURE END LIST*
%LPC*%
D10*
X135800000Y-65420000D03*
D11*
X135800000Y-57800000D03*
D12*
X243020000Y-116647500D03*
D13*
X243000000Y-116937500D02*
X243040000Y-116357500D01*
D12*
X243040000Y-116357500D03*
X237345001Y-118167500D03*
D13*
X236690000Y-118897500D02*
X238000002Y-117437500D01*
D14*
X240500000Y-121437500D03*
D12*
X238000000Y-117437500D03*
D15*
X235420000Y-121437500D03*
X245580000Y-121437500D03*
D10*
X219600000Y-63420000D03*
D11*
X219600000Y-55800000D03*
D10*
X70600000Y-63820000D03*
D11*
X70600000Y-56200000D03*
D10*
X200800000Y-56820000D03*
D11*
X200800000Y-49200000D03*
D10*
X216800000Y-62220000D03*
D11*
X216800000Y-54600000D03*
D15*
X250342500Y-83337500D03*
X240182500Y-83337500D03*
D12*
X242762500Y-79337500D03*
D14*
X245262500Y-83337500D03*
D12*
X242107501Y-80067500D03*
D13*
X241452500Y-80797500D02*
X242762502Y-79337500D01*
D12*
X247802500Y-78257500D03*
X247782500Y-78547500D03*
D13*
X247762500Y-78837500D02*
X247802500Y-78257500D01*
D16*
X290362500Y-52137500D03*
X289562500Y-50437500D03*
X288762500Y-52137500D03*
X287962500Y-50437500D03*
X287162500Y-52137500D03*
D17*
X292412500Y-46837500D03*
X285112500Y-46837500D03*
D11*
X65400000Y-57200000D03*
D10*
X65400000Y-64820000D03*
D14*
X78606750Y-148742500D03*
X54730750Y-148742500D03*
D18*
X78606750Y-133502500D03*
X54730750Y-133502500D03*
D15*
X71748750Y-140487500D03*
X61588750Y-140487500D03*
D12*
X64168750Y-136487500D03*
D14*
X66668750Y-140487500D03*
D12*
X63513751Y-137217500D03*
D13*
X62858750Y-137947500D02*
X64168752Y-136487500D01*
D12*
X69208750Y-135407500D03*
X69188750Y-135697500D03*
D13*
X69168750Y-135987500D02*
X69208750Y-135407500D01*
D12*
X321601249Y-107122500D03*
D13*
X321581250Y-107412500D02*
X321621248Y-106832500D01*
D12*
X321621250Y-106832500D03*
X315926245Y-108642496D03*
D13*
X315271250Y-109372500D02*
X316581240Y-107912492D01*
D14*
X319081250Y-111912500D03*
D12*
X316581250Y-107912500D03*
D19*
X314001250Y-111912500D03*
X324161250Y-111912500D03*
D18*
X326066250Y-123850500D03*
X326066250Y-99974500D03*
D14*
X310826250Y-123850500D03*
X310826250Y-99974500D03*
D15*
X326542500Y-83337500D03*
X316382500Y-83337500D03*
D12*
X318962500Y-79337500D03*
D14*
X321462500Y-83337500D03*
D12*
X318307501Y-80067500D03*
D13*
X317652500Y-80797500D02*
X318962502Y-79337500D01*
D12*
X324002500Y-78257500D03*
X323982500Y-78547500D03*
D13*
X323962500Y-78837500D02*
X324002500Y-78257500D01*
D10*
X203400000Y-55220000D03*
D11*
X203400000Y-47600000D03*
D15*
X66986250Y-121437500D03*
X56826250Y-121437500D03*
D12*
X59406250Y-117437500D03*
D14*
X61906250Y-121437500D03*
D12*
X58751251Y-118167500D03*
D13*
X58096250Y-118897500D02*
X59406252Y-117437500D01*
D12*
X64446250Y-116357500D03*
X64426250Y-116647500D03*
D13*
X64406250Y-116937500D02*
X64446250Y-116357500D01*
D15*
X64605000Y-102387500D03*
X54445000Y-102387500D03*
D12*
X57025000Y-98387500D03*
D14*
X59525000Y-102387500D03*
D12*
X56370001Y-99117500D03*
D13*
X55715000Y-99847500D02*
X57025002Y-98387500D01*
D12*
X62065000Y-97307500D03*
X62045000Y-97597500D03*
D13*
X62025000Y-97887500D02*
X62065000Y-97307500D01*
D20*
X50000000Y-69050000D03*
X50000000Y-50000000D03*
X326225000Y-69050000D03*
X326225000Y-50000000D03*
D21*
X303000000Y-58400000D03*
D22*
X303000000Y-59900000D03*
D23*
X280870000Y-52556250D03*
X280870000Y-57556250D03*
X275714999Y-70556371D03*
X280714999Y-70556371D03*
X263370000Y-56956250D03*
X263370000Y-54456250D03*
X278370000Y-54406250D03*
X278370000Y-56906250D03*
D11*
X91600000Y-59400000D03*
D10*
X91600000Y-67020000D03*
D11*
X94200000Y-58000000D03*
D10*
X94200000Y-65620000D03*
D11*
X115000000Y-58400000D03*
D10*
X115000000Y-66020000D03*
X112400000Y-64420000D03*
D11*
X112400000Y-56800000D03*
X133200000Y-56400000D03*
D10*
X133200000Y-64020000D03*
X156600000Y-65620000D03*
D11*
X156600000Y-58000000D03*
X154000000Y-56600000D03*
D10*
X154000000Y-64220000D03*
D11*
X177400000Y-58000000D03*
D10*
X177400000Y-65620000D03*
X174800000Y-64220000D03*
D11*
X174800000Y-56600000D03*
D10*
X198200000Y-65420000D03*
D11*
X198200000Y-57800000D03*
X195600000Y-56600000D03*
D10*
X195600000Y-64220000D03*
D11*
X305000000Y-55600000D03*
D10*
X305000000Y-47980000D03*
X302200000Y-47980000D03*
D11*
X302200000Y-55600000D03*
D10*
X89000000Y-63820000D03*
D11*
X89000000Y-56200000D03*
D10*
X86400000Y-62220000D03*
D11*
X86400000Y-54600000D03*
X109800000Y-55400000D03*
D10*
X109800000Y-63020000D03*
D11*
X107200000Y-54000000D03*
D10*
X107200000Y-61620000D03*
D11*
X130600000Y-55000000D03*
D10*
X130600000Y-62620000D03*
X128000000Y-61420000D03*
D11*
X128000000Y-53800000D03*
D10*
X151400000Y-62820000D03*
D11*
X151400000Y-55200000D03*
D10*
X148800000Y-61420000D03*
D11*
X148800000Y-53800000D03*
X172200000Y-55200000D03*
D10*
X172200000Y-62820000D03*
D11*
X169600000Y-53800000D03*
D10*
X169600000Y-61420000D03*
X193000000Y-62820000D03*
D11*
X193000000Y-55200000D03*
D10*
X213800000Y-62420000D03*
D11*
X213800000Y-54800000D03*
D10*
X208600000Y-60020000D03*
D11*
X208600000Y-52400000D03*
D10*
X68000000Y-62820000D03*
D11*
X68000000Y-55200000D03*
X83800000Y-53000000D03*
D10*
X83800000Y-60620000D03*
D11*
X81200000Y-51200000D03*
D10*
X81200000Y-58820000D03*
X104600000Y-60020000D03*
D11*
X104600000Y-52400000D03*
X102000000Y-50800000D03*
D10*
X102000000Y-58420000D03*
D11*
X125400000Y-52400000D03*
D10*
X125400000Y-60020000D03*
D11*
X122800000Y-50800000D03*
D10*
X122800000Y-58420000D03*
X146200000Y-60020000D03*
D11*
X146200000Y-52400000D03*
X143600000Y-50800000D03*
D10*
X143600000Y-58420000D03*
D11*
X167000000Y-52400000D03*
D10*
X167000000Y-60020000D03*
X190400000Y-61420000D03*
D11*
X190400000Y-53800000D03*
D10*
X187800000Y-60020000D03*
D11*
X187800000Y-52400000D03*
D10*
X211200000Y-61220000D03*
D11*
X211200000Y-53600000D03*
X62800000Y-54000000D03*
D10*
X62800000Y-61620000D03*
D11*
X60200000Y-53000000D03*
D10*
X60200000Y-60620000D03*
D11*
X73400000Y-51200000D03*
D10*
X73400000Y-58820000D03*
X78600000Y-57020000D03*
D11*
X78600000Y-49400000D03*
D10*
X99400000Y-56820000D03*
D11*
X99400000Y-49200000D03*
X96800000Y-47600000D03*
D10*
X96800000Y-55220000D03*
X120200000Y-56820000D03*
D11*
X120200000Y-49200000D03*
X141000000Y-47600000D03*
D10*
X141000000Y-55220000D03*
D11*
X138400000Y-49200000D03*
D10*
X138400000Y-56820000D03*
X164400000Y-58420000D03*
D11*
X164400000Y-50800000D03*
D10*
X161800000Y-56820000D03*
D11*
X161800000Y-49200000D03*
D10*
X185200000Y-58420000D03*
D11*
X185200000Y-50800000D03*
D10*
X206000000Y-58420000D03*
D11*
X206000000Y-50800000D03*
D10*
X180000000Y-55220000D03*
D11*
X180000000Y-47600000D03*
D10*
X57600000Y-55220000D03*
D11*
X57600000Y-47600000D03*
D10*
X55000000Y-56620000D03*
D11*
X55000000Y-49000000D03*
X76000000Y-47600000D03*
D10*
X76000000Y-55220000D03*
D11*
X117600000Y-47600000D03*
D10*
X117600000Y-55220000D03*
X159200000Y-55220000D03*
D11*
X159200000Y-47600000D03*
D10*
X182600000Y-56820000D03*
D11*
X182600000Y-49200000D03*
D23*
X296800000Y-52600000D03*
X296800000Y-57600000D03*
D20*
X71431250Y-95243750D03*
X71431250Y-152393750D03*
X304793750Y-95243750D03*
X304793750Y-152393750D03*
X188125000Y-92700000D03*
X188125000Y-159500000D03*
D24*
X257800000Y-52175000D03*
D25*
X257800000Y-54715000D03*
X255260000Y-52175000D03*
X255260000Y-54715000D03*
X252720000Y-52175000D03*
X252720000Y-54715000D03*
D26*
X319540000Y-49000000D03*
D27*
X317000000Y-49000000D03*
X311400000Y-49000000D03*
D26*
X313940000Y-49000000D03*
D28*
X299600000Y-52600000D03*
D29*
X299600000Y-57680000D03*
X283600000Y-52520000D03*
D28*
X283600000Y-57600000D03*
X294000000Y-57600000D03*
D29*
X294000000Y-52520000D03*
X252320000Y-48775000D03*
D28*
X257400000Y-48775000D03*
X310550000Y-65770000D03*
D29*
X315630000Y-65770000D03*
X315630000Y-68370000D03*
D28*
X310550000Y-68370000D03*
D12*
X314457500Y-78547500D03*
D13*
X314437500Y-78837500D02*
X314477500Y-78257500D01*
D12*
X314477500Y-78257500D03*
X308782501Y-80067500D03*
D13*
X308127500Y-80797500D02*
X309437502Y-79337500D01*
D14*
X311937500Y-83337500D03*
D12*
X309437500Y-79337500D03*
D15*
X306857500Y-83337500D03*
X317017500Y-83337500D03*
D18*
X299999500Y-76352500D03*
X323875500Y-76352500D03*
D14*
X299999500Y-91592500D03*
X323875500Y-91592500D03*
D15*
X59842500Y-83337500D03*
X49682500Y-83337500D03*
D12*
X52262500Y-79337500D03*
D14*
X54762500Y-83337500D03*
D12*
X51607501Y-80067500D03*
D13*
X50952500Y-80797500D02*
X52262502Y-79337500D01*
D12*
X57302500Y-78257500D03*
X57282500Y-78547500D03*
D13*
X57262500Y-78837500D02*
X57302500Y-78257500D01*
D15*
X78892500Y-83337500D03*
X68732500Y-83337500D03*
D12*
X71312500Y-79337500D03*
D14*
X73812500Y-83337500D03*
D12*
X70657501Y-80067500D03*
D13*
X70002500Y-80797500D02*
X71312502Y-79337500D01*
D12*
X76352500Y-78257500D03*
X76332500Y-78547500D03*
D13*
X76312500Y-78837500D02*
X76352500Y-78257500D01*
D15*
X97942500Y-83337500D03*
X87782500Y-83337500D03*
D12*
X90362500Y-79337500D03*
D14*
X92862500Y-83337500D03*
D12*
X89707501Y-80067500D03*
D13*
X89052500Y-80797500D02*
X90362502Y-79337500D01*
D12*
X95402500Y-78257500D03*
X95382500Y-78547500D03*
D13*
X95362500Y-78837500D02*
X95402500Y-78257500D01*
D12*
X114432500Y-78547500D03*
D13*
X114412500Y-78837500D02*
X114452500Y-78257500D01*
D12*
X114452500Y-78257500D03*
X108757501Y-80067500D03*
D13*
X108102500Y-80797500D02*
X109412502Y-79337500D01*
D14*
X111912500Y-83337500D03*
D12*
X109412500Y-79337500D03*
D15*
X106832500Y-83337500D03*
X116992500Y-83337500D03*
D12*
X133482500Y-78547500D03*
D13*
X133462500Y-78837500D02*
X133502500Y-78257500D01*
D12*
X133502500Y-78257500D03*
X127807501Y-80067500D03*
D13*
X127152500Y-80797500D02*
X128462502Y-79337500D01*
D14*
X130962500Y-83337500D03*
D12*
X128462500Y-79337500D03*
D15*
X125882500Y-83337500D03*
X136042500Y-83337500D03*
D12*
X152532500Y-78547500D03*
D13*
X152512500Y-78837500D02*
X152552500Y-78257500D01*
D12*
X152552500Y-78257500D03*
X146857501Y-80067500D03*
D13*
X146202500Y-80797500D02*
X147512502Y-79337500D01*
D14*
X150012500Y-83337500D03*
D12*
X147512500Y-79337500D03*
D15*
X144932500Y-83337500D03*
X155092500Y-83337500D03*
D12*
X171582500Y-78547500D03*
D13*
X171562500Y-78837500D02*
X171602500Y-78257500D01*
D12*
X171602500Y-78257500D03*
X165907501Y-80067500D03*
D13*
X165252500Y-80797500D02*
X166562502Y-79337500D01*
D14*
X169062500Y-83337500D03*
D12*
X166562500Y-79337500D03*
D15*
X163982500Y-83337500D03*
X174142500Y-83337500D03*
D12*
X190632500Y-78547500D03*
D13*
X190612500Y-78837500D02*
X190652500Y-78257500D01*
D12*
X190652500Y-78257500D03*
X184957501Y-80067500D03*
D13*
X184302500Y-80797500D02*
X185612502Y-79337500D01*
D14*
X188112500Y-83337500D03*
D12*
X185612500Y-79337500D03*
D15*
X183032500Y-83337500D03*
X193192500Y-83337500D03*
D12*
X209682500Y-78547500D03*
D13*
X209662500Y-78837500D02*
X209702500Y-78257500D01*
D12*
X209702500Y-78257500D03*
X204007501Y-80067500D03*
D13*
X203352500Y-80797500D02*
X204662502Y-79337500D01*
D14*
X207162500Y-83337500D03*
D12*
X204662500Y-79337500D03*
D15*
X202082500Y-83337500D03*
X212242500Y-83337500D03*
D12*
X228732500Y-78547500D03*
D13*
X228712500Y-78837500D02*
X228752500Y-78257500D01*
D12*
X228752500Y-78257500D03*
X223057501Y-80067500D03*
D13*
X222402500Y-80797500D02*
X223712502Y-79337500D01*
D14*
X226212500Y-83337500D03*
D12*
X223712500Y-79337500D03*
D15*
X221132500Y-83337500D03*
X231292500Y-83337500D03*
X269392500Y-83337500D03*
X259232500Y-83337500D03*
D12*
X261812500Y-79337500D03*
D14*
X264312500Y-83337500D03*
D12*
X261157501Y-80067500D03*
D13*
X260502500Y-80797500D02*
X261812502Y-79337500D01*
D12*
X266852500Y-78257500D03*
X266832500Y-78547500D03*
D13*
X266812500Y-78837500D02*
X266852500Y-78257500D01*
D15*
X288442500Y-83337500D03*
X278282500Y-83337500D03*
D12*
X280862500Y-79337500D03*
D14*
X283362500Y-83337500D03*
D12*
X280207501Y-80067500D03*
D13*
X279552500Y-80797500D02*
X280862502Y-79337500D01*
D12*
X285902500Y-78257500D03*
X285882500Y-78547500D03*
D13*
X285862500Y-78837500D02*
X285902500Y-78257500D01*
D15*
X307492500Y-83337500D03*
X297332500Y-83337500D03*
D12*
X299912500Y-79337500D03*
D14*
X302412500Y-83337500D03*
D12*
X299257501Y-80067500D03*
D13*
X298602500Y-80797500D02*
X299912502Y-79337500D01*
D12*
X304952500Y-78257500D03*
X304932500Y-78547500D03*
D13*
X304912500Y-78837500D02*
X304952500Y-78257500D01*
D15*
X88417500Y-102387500D03*
X78257500Y-102387500D03*
D12*
X80837500Y-98387500D03*
D14*
X83337500Y-102387500D03*
D12*
X80182501Y-99117500D03*
D13*
X79527500Y-99847500D02*
X80837502Y-98387500D01*
D12*
X85877500Y-97307500D03*
X85857500Y-97597500D03*
D13*
X85837500Y-97887500D02*
X85877500Y-97307500D01*
D15*
X107467500Y-102387500D03*
X97307500Y-102387500D03*
D12*
X99887500Y-98387500D03*
D14*
X102387500Y-102387500D03*
D12*
X99232501Y-99117500D03*
D13*
X98577500Y-99847500D02*
X99887502Y-98387500D01*
D12*
X104927500Y-97307500D03*
X104907500Y-97597500D03*
D13*
X104887500Y-97887500D02*
X104927500Y-97307500D01*
D12*
X123957500Y-97597500D03*
D13*
X123937500Y-97887500D02*
X123977500Y-97307500D01*
D12*
X123977500Y-97307500D03*
X118282501Y-99117500D03*
D13*
X117627500Y-99847500D02*
X118937502Y-98387500D01*
D14*
X121437500Y-102387500D03*
D12*
X118937500Y-98387500D03*
D15*
X116357500Y-102387500D03*
X126517500Y-102387500D03*
D12*
X143007500Y-97597500D03*
D13*
X142987500Y-97887500D02*
X143027500Y-97307500D01*
D12*
X143027500Y-97307500D03*
X137332501Y-99117500D03*
D13*
X136677500Y-99847500D02*
X137987502Y-98387500D01*
D14*
X140487500Y-102387500D03*
D12*
X137987500Y-98387500D03*
D15*
X135407500Y-102387500D03*
X145567500Y-102387500D03*
D12*
X162057500Y-97597500D03*
D13*
X162037500Y-97887500D02*
X162077500Y-97307500D01*
D12*
X162077500Y-97307500D03*
X156382501Y-99117500D03*
D13*
X155727500Y-99847500D02*
X157037502Y-98387500D01*
D14*
X159537500Y-102387500D03*
D12*
X157037500Y-98387500D03*
D15*
X154457500Y-102387500D03*
X164617500Y-102387500D03*
D12*
X181107500Y-97597500D03*
D13*
X181087500Y-97887500D02*
X181127500Y-97307500D01*
D12*
X181127500Y-97307500D03*
X175432501Y-99117500D03*
D13*
X174777500Y-99847500D02*
X176087502Y-98387500D01*
D14*
X178587500Y-102387500D03*
D12*
X176087500Y-98387500D03*
D15*
X173507500Y-102387500D03*
X183667500Y-102387500D03*
D12*
X200157500Y-97597500D03*
D13*
X200137500Y-97887500D02*
X200177500Y-97307500D01*
D12*
X200177500Y-97307500D03*
X194482501Y-99117500D03*
D13*
X193827500Y-99847500D02*
X195137502Y-98387500D01*
D14*
X197637500Y-102387500D03*
D12*
X195137500Y-98387500D03*
D15*
X192557500Y-102387500D03*
X202717500Y-102387500D03*
D12*
X219207500Y-97597500D03*
D13*
X219187500Y-97887500D02*
X219227500Y-97307500D01*
D12*
X219227500Y-97307500D03*
X213532501Y-99117500D03*
D13*
X212877500Y-99847500D02*
X214187502Y-98387500D01*
D14*
X216687500Y-102387500D03*
D12*
X214187500Y-98387500D03*
D15*
X211607500Y-102387500D03*
X221767500Y-102387500D03*
D12*
X238257500Y-97597500D03*
D13*
X238237500Y-97887500D02*
X238277500Y-97307500D01*
D12*
X238277500Y-97307500D03*
X232582501Y-99117500D03*
D13*
X231927500Y-99847500D02*
X233237502Y-98387500D01*
D14*
X235737500Y-102387500D03*
D12*
X233237500Y-98387500D03*
D15*
X230657500Y-102387500D03*
X240817500Y-102387500D03*
X259867500Y-102387500D03*
X249707500Y-102387500D03*
D12*
X252287500Y-98387500D03*
D14*
X254787500Y-102387500D03*
D12*
X251632501Y-99117500D03*
D13*
X250977500Y-99847500D02*
X252287502Y-98387500D01*
D12*
X257327500Y-97307500D03*
X257307500Y-97597500D03*
D13*
X257287500Y-97887500D02*
X257327500Y-97307500D01*
D15*
X278917500Y-102387500D03*
X268757500Y-102387500D03*
D12*
X271337500Y-98387500D03*
D14*
X273837500Y-102387500D03*
D12*
X270682501Y-99117500D03*
D13*
X270027500Y-99847500D02*
X271337502Y-98387500D01*
D12*
X276377500Y-97307500D03*
X276357500Y-97597500D03*
D13*
X276337500Y-97887500D02*
X276377500Y-97307500D01*
D15*
X297967500Y-102387500D03*
X287807500Y-102387500D03*
D12*
X290387500Y-98387500D03*
D14*
X292887500Y-102387500D03*
D12*
X289732501Y-99117500D03*
D13*
X289077500Y-99847500D02*
X290387502Y-98387500D01*
D12*
X295427500Y-97307500D03*
X295407500Y-97597500D03*
D13*
X295387500Y-97887500D02*
X295427500Y-97307500D01*
D15*
X302730000Y-121437500D03*
X292570000Y-121437500D03*
D12*
X295150000Y-117437500D03*
D14*
X297650000Y-121437500D03*
D12*
X294495001Y-118167500D03*
D13*
X293840000Y-118897500D02*
X295150002Y-117437500D01*
D12*
X300190000Y-116357500D03*
X300170000Y-116647500D03*
D13*
X300150000Y-116937500D02*
X300190000Y-116357500D01*
D15*
X93180000Y-121437500D03*
X83020000Y-121437500D03*
D12*
X85600000Y-117437500D03*
D14*
X88100000Y-121437500D03*
D12*
X84945001Y-118167500D03*
D13*
X84290000Y-118897500D02*
X85600002Y-117437500D01*
D12*
X90640000Y-116357500D03*
X90620000Y-116647500D03*
D13*
X90600000Y-116937500D02*
X90640000Y-116357500D01*
D15*
X112230000Y-121437500D03*
X102070000Y-121437500D03*
D12*
X104650000Y-117437500D03*
D14*
X107150000Y-121437500D03*
D12*
X103995001Y-118167500D03*
D13*
X103340000Y-118897500D02*
X104650002Y-117437500D01*
D12*
X109690000Y-116357500D03*
X109670000Y-116647500D03*
D13*
X109650000Y-116937500D02*
X109690000Y-116357500D01*
D12*
X128720000Y-116647500D03*
D13*
X128700000Y-116937500D02*
X128740000Y-116357500D01*
D12*
X128740000Y-116357500D03*
X123045001Y-118167500D03*
D13*
X122390000Y-118897500D02*
X123700002Y-117437500D01*
D14*
X126200000Y-121437500D03*
D12*
X123700000Y-117437500D03*
D15*
X121120000Y-121437500D03*
X131280000Y-121437500D03*
D12*
X147770000Y-116647500D03*
D13*
X147750000Y-116937500D02*
X147790000Y-116357500D01*
D12*
X147790000Y-116357500D03*
X142095001Y-118167500D03*
D13*
X141440000Y-118897500D02*
X142750002Y-117437500D01*
D14*
X145250000Y-121437500D03*
D12*
X142750000Y-117437500D03*
D15*
X140170000Y-121437500D03*
X150330000Y-121437500D03*
D12*
X166820000Y-116647500D03*
D13*
X166800000Y-116937500D02*
X166840000Y-116357500D01*
D12*
X166840000Y-116357500D03*
X161145001Y-118167500D03*
D13*
X160490000Y-118897500D02*
X161800002Y-117437500D01*
D14*
X164300000Y-121437500D03*
D12*
X161800000Y-117437500D03*
D15*
X159220000Y-121437500D03*
X169380000Y-121437500D03*
X188430000Y-121437500D03*
X178270000Y-121437500D03*
D12*
X180850000Y-117437500D03*
D14*
X183350000Y-121437500D03*
D12*
X180195001Y-118167500D03*
D13*
X179540000Y-118897500D02*
X180850002Y-117437500D01*
D12*
X185890000Y-116357500D03*
X185870000Y-116647500D03*
D13*
X185850000Y-116937500D02*
X185890000Y-116357500D01*
D12*
X204920000Y-116647500D03*
D13*
X204900000Y-116937500D02*
X204940000Y-116357500D01*
D12*
X204940000Y-116357500D03*
X199245001Y-118167500D03*
D13*
X198590000Y-118897500D02*
X199900002Y-117437500D01*
D14*
X202400000Y-121437500D03*
D12*
X199900000Y-117437500D03*
D15*
X197320000Y-121437500D03*
X207480000Y-121437500D03*
D12*
X223970000Y-116647500D03*
D13*
X223950000Y-116937500D02*
X223990000Y-116357500D01*
D12*
X223990000Y-116357500D03*
X218295001Y-118167500D03*
D13*
X217640000Y-118897500D02*
X218950002Y-117437500D01*
D14*
X221450000Y-121437500D03*
D12*
X218950000Y-117437500D03*
D15*
X216370000Y-121437500D03*
X226530000Y-121437500D03*
X264630000Y-121437500D03*
X254470000Y-121437500D03*
D12*
X257050000Y-117437500D03*
D14*
X259550000Y-121437500D03*
D12*
X256395001Y-118167500D03*
D13*
X255740000Y-118897500D02*
X257050002Y-117437500D01*
D12*
X262090000Y-116357500D03*
X262070000Y-116647500D03*
D13*
X262050000Y-116937500D02*
X262090000Y-116357500D01*
D15*
X283680000Y-121437500D03*
X273520000Y-121437500D03*
D12*
X276100000Y-117437500D03*
D14*
X278600000Y-121437500D03*
D12*
X275445001Y-118167500D03*
D13*
X274790000Y-118897500D02*
X276100002Y-117437500D01*
D12*
X281140000Y-116357500D03*
X281120000Y-116647500D03*
D13*
X281100000Y-116937500D02*
X281140000Y-116357500D01*
D12*
X319220000Y-97597500D03*
D13*
X319200000Y-97887500D02*
X319240000Y-97307500D01*
D12*
X319240000Y-97307500D03*
X313545001Y-99117500D03*
D13*
X312890000Y-99847500D02*
X314200002Y-98387500D01*
D14*
X316700000Y-102387500D03*
D12*
X314200000Y-98387500D03*
D15*
X311620000Y-102387500D03*
X321780000Y-102387500D03*
D12*
X312076250Y-116647500D03*
D13*
X312056250Y-116937500D02*
X312096250Y-116357500D01*
D12*
X312096250Y-116357500D03*
X306401251Y-118167500D03*
D13*
X305746250Y-118897500D02*
X307056252Y-117437500D01*
D14*
X309556250Y-121437500D03*
D12*
X307056250Y-117437500D03*
D15*
X304476250Y-121437500D03*
X314636250Y-121437500D03*
D18*
X297618250Y-114452500D03*
X321494250Y-114452500D03*
D14*
X297618250Y-129692500D03*
X321494250Y-129692500D03*
D12*
X297788750Y-135697500D03*
D13*
X297768750Y-135987500D02*
X297808750Y-135407500D01*
D12*
X297808750Y-135407500D03*
X292113751Y-137217500D03*
D13*
X291458750Y-137947500D02*
X292768752Y-136487500D01*
D14*
X295268750Y-140487500D03*
D12*
X292768750Y-136487500D03*
D15*
X290188750Y-140487500D03*
X300348750Y-140487500D03*
X83655000Y-140487500D03*
X73495000Y-140487500D03*
D12*
X76075000Y-136487500D03*
D14*
X78575000Y-140487500D03*
D12*
X75420001Y-137217500D03*
D13*
X74765000Y-137947500D02*
X76075002Y-136487500D01*
D12*
X81115000Y-135407500D03*
X81095000Y-135697500D03*
D13*
X81075000Y-135987500D02*
X81115000Y-135407500D01*
D15*
X102705000Y-140487500D03*
X92545000Y-140487500D03*
D12*
X95125000Y-136487500D03*
D14*
X97625000Y-140487500D03*
D12*
X94470001Y-137217500D03*
D13*
X93815000Y-137947500D02*
X95125002Y-136487500D01*
D12*
X100165000Y-135407500D03*
X100145000Y-135697500D03*
D13*
X100125000Y-135987500D02*
X100165000Y-135407500D01*
D12*
X119195000Y-135697500D03*
D13*
X119175000Y-135987500D02*
X119215000Y-135407500D01*
D12*
X119215000Y-135407500D03*
X113520001Y-137217500D03*
D13*
X112865000Y-137947500D02*
X114175002Y-136487500D01*
D14*
X116675000Y-140487500D03*
D12*
X114175000Y-136487500D03*
D15*
X111595000Y-140487500D03*
X121755000Y-140487500D03*
D12*
X138245000Y-135697500D03*
D13*
X138225000Y-135987500D02*
X138265000Y-135407500D01*
D12*
X138265000Y-135407500D03*
X132570001Y-137217500D03*
D13*
X131915000Y-137947500D02*
X133225002Y-136487500D01*
D14*
X135725000Y-140487500D03*
D12*
X133225000Y-136487500D03*
D15*
X130645000Y-140487500D03*
X140805000Y-140487500D03*
D12*
X157295000Y-135697500D03*
D13*
X157275000Y-135987500D02*
X157315000Y-135407500D01*
D12*
X157315000Y-135407500D03*
X151620001Y-137217500D03*
D13*
X150965000Y-137947500D02*
X152275002Y-136487500D01*
D14*
X154775000Y-140487500D03*
D12*
X152275000Y-136487500D03*
D15*
X149695000Y-140487500D03*
X159855000Y-140487500D03*
D12*
X176345000Y-135697500D03*
D13*
X176325000Y-135987500D02*
X176365000Y-135407500D01*
D12*
X176365000Y-135407500D03*
X170670001Y-137217500D03*
D13*
X170015000Y-137947500D02*
X171325002Y-136487500D01*
D14*
X173825000Y-140487500D03*
D12*
X171325000Y-136487500D03*
D15*
X168745000Y-140487500D03*
X178905000Y-140487500D03*
D12*
X195395000Y-135697500D03*
D13*
X195375000Y-135987500D02*
X195415000Y-135407500D01*
D12*
X195415000Y-135407500D03*
X189720001Y-137217500D03*
D13*
X189065000Y-137947500D02*
X190375002Y-136487500D01*
D14*
X192875000Y-140487500D03*
D12*
X190375000Y-136487500D03*
D15*
X187795000Y-140487500D03*
X197955000Y-140487500D03*
D12*
X214445000Y-135697500D03*
D13*
X214425000Y-135987500D02*
X214465000Y-135407500D01*
D12*
X214465000Y-135407500D03*
X208770001Y-137217500D03*
D13*
X208115000Y-137947500D02*
X209425002Y-136487500D01*
D14*
X211925000Y-140487500D03*
D12*
X209425000Y-136487500D03*
D15*
X206845000Y-140487500D03*
X217005000Y-140487500D03*
D12*
X233495000Y-135697500D03*
D13*
X233475000Y-135987500D02*
X233515000Y-135407500D01*
D12*
X233515000Y-135407500D03*
X227820001Y-137217500D03*
D13*
X227165000Y-137947500D02*
X228475002Y-136487500D01*
D14*
X230975000Y-140487500D03*
D12*
X228475000Y-136487500D03*
D15*
X225895000Y-140487500D03*
X236055000Y-140487500D03*
X255105000Y-140487500D03*
X244945000Y-140487500D03*
D12*
X247525000Y-136487500D03*
D14*
X250025000Y-140487500D03*
D12*
X246870001Y-137217500D03*
D13*
X246215000Y-137947500D02*
X247525002Y-136487500D01*
D12*
X252565000Y-135407500D03*
X252545000Y-135697500D03*
D13*
X252525000Y-135987500D02*
X252565000Y-135407500D01*
D15*
X274155000Y-140487500D03*
X263995000Y-140487500D03*
D12*
X266575000Y-136487500D03*
D14*
X269075000Y-140487500D03*
D12*
X265920001Y-137217500D03*
D13*
X265265000Y-137947500D02*
X266575002Y-136487500D01*
D12*
X271615000Y-135407500D03*
X271595000Y-135697500D03*
D13*
X271575000Y-135987500D02*
X271615000Y-135407500D01*
D12*
X307313750Y-135697500D03*
D13*
X307293750Y-135987500D02*
X307333750Y-135407500D01*
D12*
X307333750Y-135407500D03*
X301638751Y-137217500D03*
D13*
X300983750Y-137947500D02*
X302293752Y-136487500D01*
D14*
X304793750Y-140487500D03*
D12*
X302293750Y-136487500D03*
D15*
X299713750Y-140487500D03*
X309873750Y-140487500D03*
D18*
X292855750Y-133502500D03*
X316731750Y-133502500D03*
D14*
X292855750Y-148742500D03*
X316731750Y-148742500D03*
D15*
X326542500Y-140487500D03*
X316382500Y-140487500D03*
D12*
X318962500Y-136487500D03*
D14*
X321462500Y-140487500D03*
D12*
X318307501Y-137217500D03*
D13*
X317652500Y-137947500D02*
X318962502Y-136487500D01*
D12*
X324002500Y-135407500D03*
X323982500Y-135697500D03*
D13*
X323962500Y-135987500D02*
X324002500Y-135407500D01*
D15*
X62223750Y-159537500D03*
X52063750Y-159537500D03*
D12*
X54643750Y-155537500D03*
D14*
X57143750Y-159537500D03*
D12*
X53988751Y-156267500D03*
D13*
X53333750Y-156997500D02*
X54643752Y-155537500D01*
D12*
X59683750Y-154457500D03*
X59663750Y-154747500D03*
D13*
X59643750Y-155037500D02*
X59683750Y-154457500D01*
D12*
X83476250Y-154747500D03*
D13*
X83456250Y-155037500D02*
X83496250Y-154457500D01*
D12*
X83496250Y-154457500D03*
X77801251Y-156267500D03*
D13*
X77146250Y-156997500D02*
X78456252Y-155537500D01*
D14*
X80956250Y-159537500D03*
D12*
X78456250Y-155537500D03*
D15*
X75876250Y-159537500D03*
X86036250Y-159537500D03*
X109848750Y-159537500D03*
X99688750Y-159537500D03*
D12*
X102268750Y-155537500D03*
D14*
X104768750Y-159537500D03*
D12*
X101613751Y-156267500D03*
D13*
X100958750Y-156997500D02*
X102268752Y-155537500D01*
D12*
X107308750Y-154457500D03*
X107288750Y-154747500D03*
D13*
X107268750Y-155037500D02*
X107308750Y-154457500D01*
D12*
X178726250Y-154747500D03*
D13*
X178706250Y-155037500D02*
X178746250Y-154457500D01*
D12*
X178746250Y-154457500D03*
X173051251Y-156267500D03*
D13*
X172396250Y-156997500D02*
X173706252Y-155537500D01*
D14*
X176206250Y-159537500D03*
D12*
X173706250Y-155537500D03*
D15*
X171126250Y-159537500D03*
X181286250Y-159537500D03*
D18*
X126206350Y-166522500D03*
X226206150Y-166522500D03*
D14*
X126206350Y-151282500D03*
X226206150Y-151282500D03*
D12*
X250163750Y-154747500D03*
D13*
X250143750Y-155037500D02*
X250183750Y-154457500D01*
D12*
X250183750Y-154457500D03*
X244488751Y-156267500D03*
D13*
X243833750Y-156997500D02*
X245143752Y-155537500D01*
D14*
X247643750Y-159537500D03*
D12*
X245143750Y-155537500D03*
D15*
X242563750Y-159537500D03*
X252723750Y-159537500D03*
X276536250Y-159537500D03*
X266376250Y-159537500D03*
D12*
X268956250Y-155537500D03*
D14*
X271456250Y-159537500D03*
D12*
X268301251Y-156267500D03*
D13*
X267646250Y-156997500D02*
X268956252Y-155537500D01*
D12*
X273996250Y-154457500D03*
X273976250Y-154747500D03*
D13*
X273956250Y-155037500D02*
X273996250Y-154457500D01*
D12*
X297788750Y-154747500D03*
D13*
X297768750Y-155037500D02*
X297808750Y-154457500D01*
D12*
X297808750Y-154457500D03*
X292113751Y-156267500D03*
D13*
X291458750Y-156997500D02*
X292768752Y-155537500D01*
D14*
X295268750Y-159537500D03*
D12*
X292768750Y-155537500D03*
D15*
X290188750Y-159537500D03*
X300348750Y-159537500D03*
X324161250Y-159537500D03*
X314001250Y-159537500D03*
D12*
X316581250Y-155537500D03*
D14*
X319081250Y-159537500D03*
D12*
X315926251Y-156267500D03*
D13*
X315271250Y-156997500D02*
X316581252Y-155537500D01*
D12*
X321621250Y-154457500D03*
X321601250Y-154747500D03*
D13*
X321581250Y-155037500D02*
X321621250Y-154457500D01*
D30*
X231200000Y-55000000D03*
X231200000Y-50500000D03*
X237700000Y-55000000D03*
X237700000Y-50500000D03*
X247549999Y-50500000D03*
X247549999Y-55000000D03*
X241049999Y-50500000D03*
X241049999Y-55000000D03*
D12*
X59663750Y-135697500D03*
D13*
X59643750Y-135987500D02*
X59683750Y-135407500D01*
D12*
X59683750Y-135407500D03*
X53988751Y-137217500D03*
D13*
X53333750Y-137947500D02*
X54643752Y-136487500D01*
D14*
X57143750Y-140487500D03*
D12*
X54643750Y-136487500D03*
D15*
X52063750Y-140487500D03*
X62223750Y-140487500D03*
D11*
X296220000Y-60200000D03*
D10*
X263200000Y-67820000D03*
X293680000Y-60200000D03*
X265740000Y-67820000D03*
X291140000Y-60200000D03*
X268280000Y-67820000D03*
X288600000Y-60200000D03*
X270820000Y-67820000D03*
X286060000Y-60200000D03*
X273360000Y-67820000D03*
X283520000Y-60200000D03*
X275900000Y-67820000D03*
X280980000Y-60200000D03*
X278440000Y-67820000D03*
X278440000Y-60200000D03*
X280980000Y-67820000D03*
X275900000Y-60200000D03*
X283520000Y-67820000D03*
X273360000Y-60200000D03*
X286060000Y-67820000D03*
X270820000Y-60200000D03*
X288600000Y-67820000D03*
X268280000Y-60200000D03*
X291140000Y-67820000D03*
X265740000Y-60200000D03*
X293680000Y-67820000D03*
X263200000Y-60200000D03*
X296220000Y-67820000D03*
D31*
X273370000Y-55556250D03*
X268490000Y-55556250D03*
M02*
