M48
; DRILL file {KiCad 5.99.0-unknown-281d77f~86~ubuntu18.04.1} date Fri 27 Sep 2019 10:58:52 AM IST
; FORMAT={-:-/ absolute / inch / decimal}
; #@! TF.CreationDate,2019-09-27T10:58:52+01:00
; #@! TF.GenerationSoftware,Kicad,Pcbnew,5.99.0-unknown-281d77f~86~ubuntu18.04.1
; #@! TF.FileFunction,Plated,1,2,PTH
FMAT,2
INCH
T1C0.0236
T2C0.0276
T3C0.0315
T4C0.0354
T5C0.0394
T6C0.0433
T7C0.0579
T8C0.0866
%
G90
G05
T1
X2.1102Y-3.685
X2.1181Y-5.0079
X2.1654Y-4.3937
X2.3228Y-2.9213
X2.3465Y-3.5984
X2.5433Y-4.3701
X2.5984Y-5.7953
X2.6299Y-6.0551
X2.8583Y-5.2126
X3.0866Y-3.685
X3.1654Y-4.4882
X3.4173Y-2.937
X3.4882Y-5.8425
X3.6299Y-6.0394
X3.6535Y-3.7323
X3.7323Y-6.5354
X4.2205Y-5.937
X4.2441Y-4.4488
X4.2992Y-5.1181
X4.5591Y-2.937
X4.5984Y-3.685
X5.1024Y-3.874
X5.2283Y-4.3701
X5.3543Y-2.4252
X5.7165Y-4.3543
X5.7165Y-5.1339
X5.8189Y-5.9921
X6.0787Y-2.3937
X6.1417Y-4.5984
X6.2362Y-3.5906
X6.2441Y-3.0945
X6.3622Y-5.8819
X6.5748Y-6.3701
X6.7323Y-4.3858
X6.8189Y-4.6299
X6.8425Y-4.9606
X6.9134Y-2.4094
X7.252Y-4.3307
X7.622Y-5.1024
X7.748Y-3.1339
X7.7559Y-6.5354
X7.8268Y-2.4016
X7.8976Y-5.8898
X7.9449Y-3.6063
X8.1417Y-4.3543
X8.5276Y-6.1811
X8.748Y-4.3307
X8.811Y-1.9055
X8.874Y-2.3307
X8.9606Y-4.315
X9.0236Y-2.5748
X9.0472Y-6.5748
X9.063Y-3.6063
X9.1575Y-5.1339
X9.2283Y-6.2913
X9.315Y-3.1024
X9.4646Y-5.9134
X9.5669Y-2.5827
X9.7795Y-4.4331
X9.8346Y-5.1732
X10.1181Y-2.3701
X10.189Y-5.622
X10.2283Y-6.126
X10.3701Y-4.2441
X10.5591Y-5.063
X10.748Y-3.5591
X10.7717Y-3.126
X10.8413Y-2.5888
X10.9685Y-4.3701
X11.0Y-1.8425
X11.0079Y-5.2756
X11.1181Y-6.1732
X11.2047Y-5.3622
X11.2441Y-4.1575
X11.2835Y-2.1496
X11.2913Y-6.3307
X11.3307Y-5.8346
X11.5906Y-3.4882
X11.6063Y-2.9449
X11.7402Y-1.8583
X11.8661Y-3.9134
X11.9921Y-4.3622
X12.0709Y-5.0079
X12.1181Y-6.2913
X12.189Y-6.0394
X12.2205Y-3.4094
X12.2205Y-5.1969
X12.2441Y-3.7008
X12.2441Y-4.4094
X12.4961Y-3.6142
X12.5354Y-4.622
X12.8504Y-4.6457
X12.9055Y-5.874
X12.9213Y-2.2126
X11.9291Y-2.2992
X11.9291Y-2.3583
T2
X12.2264Y-2.5894
X12.4264Y-2.5894
X9.9339Y-1.9203
X10.1339Y-1.9203
X11.5748Y-2.0677
X11.5748Y-2.2677
X11.7953Y-2.0709
X11.7953Y-2.2709
X11.1654Y-2.0677
X11.1654Y-2.2677
X12.2264Y-2.6917
X12.4264Y-2.6917
T3
X2.4724Y-2.126
X2.4724Y-2.426
X5.8583Y-2.1181
X5.8583Y-2.4181
X4.5276Y-2.2992
X4.5276Y-2.5992
X4.1181Y-2.063
X4.1181Y-2.363
X7.4961Y-2.1181
X7.4961Y-2.4181
X7.9055Y-1.937
X7.9055Y-2.237
X6.7795Y-2.1732
X6.7795Y-2.4732
X8.1102Y-2.0
X8.1102Y-2.3
X7.189Y-1.937
X7.189Y-2.237
X10.8549Y-2.7778
X11.0518Y-2.7778
X4.4252Y-2.2362
X4.4252Y-2.5362
X4.0157Y-2.0
X4.0157Y-2.3
X8.5354Y-2.1496
X8.5354Y-2.4496
X5.1417Y-2.1654
X5.1417Y-2.4654
X11.8976Y-1.889
X11.8976Y-2.189
X8.6457Y-2.1969
X8.6457Y-2.4969
X6.6772Y-2.1181
X6.6772Y-2.4181
X7.0866Y-1.874
X7.0866Y-2.174
X2.3701Y-2.0866
X2.3701Y-2.3866
X11.685Y-2.0709
X11.685Y-2.2677
X5.2441Y-2.2205
X5.2441Y-2.5205
X4.937Y-2.063
X4.937Y-2.363
X10.3622Y-2.3701
X10.3622Y-2.6701
X10.4622Y-2.3701
X10.4622Y-2.6701
X10.5622Y-2.3701
X10.5622Y-2.6701
X10.6622Y-2.3701
X10.6622Y-2.6701
X10.7622Y-2.3701
X10.7622Y-2.6701
X10.8622Y-2.3701
X10.8622Y-2.6701
X10.9622Y-2.3701
X10.9622Y-2.6701
X11.0622Y-2.3701
X11.0622Y-2.6701
X11.1622Y-2.3701
X11.1622Y-2.6701
X11.2622Y-2.3701
X11.2622Y-2.6701
X11.3622Y-2.3701
X11.3622Y-2.6701
X11.4622Y-2.3701
X11.4622Y-2.6701
X11.5622Y-2.3701
X11.5622Y-2.6701
X11.6622Y-2.3701
X11.6622Y-2.6701
X5.0394Y-2.1181
X5.0394Y-2.4181
X3.5039Y-2.2126
X3.5039Y-2.5126
X7.5984Y-2.1732
X7.5984Y-2.4732
X5.5512Y-1.874
X5.5512Y-2.174
X2.2677Y-1.874
X2.2677Y-2.174
X7.3937Y-2.063
X7.3937Y-2.363
X2.8898Y-2.0157
X2.8898Y-2.3157
X4.8346Y-2.0
X4.8346Y-2.3
X6.9843Y-2.2835
X6.9843Y-2.5835
X3.4016Y-2.1496
X3.4016Y-2.4496
X8.4173Y-2.1575
X8.4173Y-2.4575
X5.4488Y-1.937
X5.4488Y-2.237
X3.0945Y-1.9449
X3.0945Y-2.2449
X5.7559Y-2.063
X5.7559Y-2.363
X5.3465Y-2.2756
X5.3465Y-2.5756
X8.0079Y-1.874
X8.0079Y-2.174
X6.8819Y-2.2283
X6.8819Y-2.5283
X6.1654Y-2.2835
X6.1654Y-2.5835
X8.2126Y-2.063
X8.2126Y-2.363
X3.6063Y-2.3386
X3.6063Y-2.6386
X3.9134Y-1.937
X3.9134Y-2.237
X8.315Y-2.1102
X8.315Y-2.4102
X11.0579Y-2.0691
X11.0579Y-2.266
X7.8031Y-2.2756
X7.8031Y-2.5756
X2.1654Y-1.9291
X2.1654Y-2.2291
X6.063Y-2.2283
X6.063Y-2.5283
X2.6772Y-2.1732
X2.6772Y-2.4732
X3.7087Y-2.2835
X3.7087Y-2.5835
X10.5705Y-2.1873
X10.7626Y-2.1873
X2.7795Y-2.2126
X2.7795Y-2.5126
X2.5748Y-2.252
X2.5748Y-2.552
X4.3228Y-2.1811
X4.3228Y-2.4811
X6.4724Y-2.0
X6.4724Y-2.3
X2.9921Y-1.874
X2.9921Y-2.174
X3.2992Y-2.0866
X3.2992Y-2.3866
X5.6535Y-2.0
X5.6535Y-2.3
X10.3689Y-2.1439
X10.3689Y-2.2424
X4.2205Y-2.126
X4.2205Y-2.426
X5.9606Y-2.1732
X5.9606Y-2.4732
X6.3701Y-1.937
X6.3701Y-2.237
X4.6299Y-1.874
X4.6299Y-2.174
X3.811Y-1.874
X3.811Y-2.174
X3.1969Y-2.0157
X3.1969Y-2.3157
X6.5748Y-2.063
X6.5748Y-2.363
X7.7008Y-2.2283
X7.7008Y-2.5283
X7.2913Y-2.0
X7.2913Y-2.3
X6.2677Y-1.874
X6.2677Y-2.174
X4.7323Y-1.937
X4.7323Y-2.237
X12.0079Y-1.889
X12.0079Y-2.189
X10.9594Y-2.142
X10.9594Y-2.2404
T4
X12.2598Y-1.9291
X12.3598Y-1.9291
X12.4803Y-1.9291
X12.5803Y-1.9291
T5
X9.9496Y-2.0541
X9.9496Y-2.1541
X10.0496Y-2.0541
X10.0496Y-2.1541
X10.1496Y-2.0541
X10.1496Y-2.1541
T6
X9.1024Y-1.9882
X9.1024Y-2.1654
X9.3583Y-1.9882
X9.3583Y-2.1654
X9.4902Y-1.9882
X9.4902Y-2.1654
X9.7461Y-1.9882
X9.7461Y-2.1654
T7
X8.9435Y-5.431
X8.9951Y-5.3735
X9.1919Y-5.3538
X9.1935Y-5.331
X4.0685Y-4.681
X4.1201Y-4.6235
X4.3169Y-4.6038
X4.3185Y-4.581
X8.5685Y-4.681
X8.6201Y-4.6235
X8.8169Y-4.6038
X8.8185Y-4.581
X3.6935Y-5.431
X3.7451Y-5.3735
X3.9419Y-5.3538
X3.9435Y-5.331
X12.4123Y-6.181
X12.4638Y-6.1235
X12.6607Y-6.1038
X12.6623Y-6.081
X5.381Y-3.931
X5.4326Y-3.8735
X5.6294Y-3.8538
X5.631Y-3.831
X5.5685Y-4.681
X5.6201Y-4.6235
X5.8169Y-4.6038
X5.8185Y-4.581
X9.881Y-3.931
X9.9326Y-3.8735
X10.1294Y-3.8538
X10.131Y-3.831
X2.2873Y-4.681
X2.3388Y-4.6235
X2.5357Y-4.6038
X2.5373Y-4.581
X9.6935Y-5.431
X9.7451Y-5.3735
X9.9419Y-5.3538
X9.9435Y-5.331
X4.4435Y-5.431
X4.4951Y-5.3735
X4.6919Y-5.3538
X4.6935Y-5.331
X6.3185Y-4.681
X6.3701Y-4.6235
X6.5669Y-4.6038
X6.5685Y-4.581
X2.756Y-3.181
X2.8076Y-3.1235
X3.0044Y-3.1038
X3.006Y-3.081
X5.006Y-3.181
X5.0576Y-3.1235
X5.2544Y-3.1038
X5.256Y-3.081
X5.1935Y-5.431
X5.2451Y-5.3735
X5.4419Y-5.3538
X5.4435Y-5.331
X7.4435Y-5.431
X7.4951Y-5.3735
X7.6919Y-5.3538
X7.6935Y-5.331
X7.256Y-3.181
X7.3076Y-3.1235
X7.5044Y-3.1038
X7.506Y-3.081
X10.0685Y-4.681
X10.1201Y-4.6235
X10.3169Y-4.6038
X10.3185Y-4.581
X3.9748Y-6.181
X4.0263Y-6.1235
X4.2232Y-6.1038
X4.2248Y-6.081
X6.131Y-3.931
X6.1826Y-3.8735
X6.3794Y-3.8538
X6.381Y-3.831
X10.631Y-3.931
X10.6826Y-3.8735
X10.8794Y-3.8538
X10.881Y-3.831
X9.5998Y-6.181
X9.6513Y-6.1235
X9.8482Y-6.1038
X9.8498Y-6.081
X8.756Y-3.181
X8.8076Y-3.1235
X9.0044Y-3.1038
X9.006Y-3.081
X8.1935Y-5.431
X8.2451Y-5.3735
X8.4419Y-5.3538
X8.4435Y-5.331
X10.4435Y-5.431
X10.4951Y-5.3735
X10.6919Y-5.3538
X10.6935Y-5.331
X3.131Y-3.931
X3.1826Y-3.8735
X3.3794Y-3.8538
X3.381Y-3.831
X6.7873Y-6.181
X6.8388Y-6.1235
X7.0357Y-6.1038
X7.0373Y-6.081
X4.8185Y-4.681
X4.8701Y-4.6235
X5.0669Y-4.6038
X5.0685Y-4.581
X6.881Y-3.931
X6.9326Y-3.8735
X7.1294Y-3.8538
X7.131Y-3.831
X7.0685Y-4.681
X7.1201Y-4.6235
X7.3169Y-4.6038
X7.3185Y-4.581
X11.381Y-3.931
X11.4326Y-3.8735
X11.6294Y-3.8538
X11.631Y-3.831
X9.3185Y-4.681
X9.3701Y-4.6235
X9.5669Y-4.6038
X9.5685Y-4.581
X12.506Y-5.431
X12.5576Y-5.3735
X12.7544Y-5.3538
X12.756Y-5.331
X9.506Y-3.181
X9.5576Y-3.1235
X9.7544Y-3.1038
X9.756Y-3.081
X10.256Y-3.181
X10.3076Y-3.1235
X10.5044Y-3.1038
X10.506Y-3.081
X11.8498Y-5.431
X11.9013Y-5.3735
X12.0982Y-5.3538
X12.0998Y-5.331
X12.131Y-3.181
X12.1826Y-3.1235
X12.3794Y-3.1038
X12.381Y-3.081
X3.881Y-3.931
X3.9326Y-3.8735
X4.1294Y-3.8538
X4.131Y-3.831
X5.9435Y-5.431
X5.9951Y-5.3735
X6.1919Y-5.3538
X6.1935Y-5.331
X5.756Y-3.181
X5.8076Y-3.1235
X6.0044Y-3.1038
X6.006Y-3.081
X7.631Y-3.931
X7.6826Y-3.8735
X7.8794Y-3.8538
X7.881Y-3.831
X11.5685Y-4.681
X11.6201Y-4.6235
X11.8169Y-4.6038
X11.8185Y-4.581
X10.8185Y-4.681
X10.8701Y-4.6235
X11.0669Y-4.6038
X11.0685Y-4.581
X11.006Y-3.181
X11.0576Y-3.1235
X11.2544Y-3.1038
X11.256Y-3.081
X11.4748Y-5.431
X11.5263Y-5.3735
X11.7232Y-5.3538
X11.7248Y-5.331
X10.5373Y-6.181
X10.5888Y-6.1235
X10.7857Y-6.1038
X10.7873Y-6.081
X3.506Y-3.181
X3.5576Y-3.1235
X3.7544Y-3.1038
X3.756Y-3.081
X8.381Y-3.931
X8.4326Y-3.8735
X8.6294Y-3.8538
X8.631Y-3.831
X12.3185Y-3.931
X12.3701Y-3.8735
X12.5669Y-3.8538
X12.5685Y-3.831
X8.006Y-3.181
X8.0576Y-3.1235
X8.2544Y-3.1038
X8.256Y-3.081
X2.9435Y-5.431
X2.9951Y-5.3735
X3.1919Y-5.3538
X3.1935Y-5.331
X2.0998Y-6.181
X2.1513Y-6.1235
X2.3482Y-6.1038
X2.3498Y-6.081
X12.506Y-3.181
X12.5576Y-3.1235
X12.7544Y-3.1038
X12.756Y-3.081
X4.631Y-3.931
X4.6826Y-3.8735
X4.8794Y-3.8538
X4.881Y-3.831
X2.006Y-3.181
X2.0576Y-3.1235
X2.2544Y-3.1038
X2.256Y-3.081
X6.6935Y-5.431
X6.7451Y-5.3735
X6.9419Y-5.3538
X6.9435Y-5.331
X6.506Y-3.181
X6.5576Y-3.1235
X6.7544Y-3.1038
X6.756Y-3.081
X12.4123Y-4.306
X12.4638Y-4.2485
X12.6607Y-4.2288
X12.6623Y-4.206
X3.0373Y-6.181
X3.0888Y-6.1235
X3.2857Y-6.1038
X3.2873Y-6.081
X2.1935Y-3.931
X2.2451Y-3.8735
X2.4419Y-3.8538
X2.4435Y-3.831
X11.756Y-3.181
X11.8076Y-3.1235
X12.0044Y-3.1038
X12.006Y-3.081
X3.3185Y-4.681
X3.3701Y-4.6235
X3.5669Y-4.6038
X3.5685Y-4.581
X2.0998Y-5.431
X2.1513Y-5.3735
X2.3482Y-5.3538
X2.3498Y-5.331
X7.8185Y-4.681
X7.8701Y-4.6235
X8.0669Y-4.6038
X8.0685Y-4.581
X2.4748Y-5.431
X2.5263Y-5.3735
X2.7232Y-5.3538
X2.7248Y-5.331
X11.4748Y-6.181
X11.5263Y-6.1235
X11.7232Y-6.1038
X11.7248Y-6.081
X9.131Y-3.931
X9.1826Y-3.8735
X9.3794Y-3.8538
X9.381Y-3.831
X4.256Y-3.181
X4.3076Y-3.1235
X4.5044Y-3.1038
X4.506Y-3.081
X12.0373Y-4.681
X12.0888Y-4.6235
X12.2857Y-4.6038
X12.2873Y-4.581
T8
X12.8435Y-1.9685
X1.9685Y-2.7185
X2.8123Y-5.9998
X1.9685Y-1.9685
X12.8435Y-2.7185
X11.9998Y-3.7498
X2.8123Y-3.7498
X11.9998Y-5.9998
X7.4065Y-3.6496
X7.4065Y-6.2795
T2
G00X11.2249Y-1.8204
M15
G01X11.2249Y-1.8676
M16
G05
G00X11.3056Y-2.0428
M15
G01X11.3056Y-2.0428
M16
G05
G00X11.3371Y-1.9956
M15
G01X11.3371Y-1.9956
M16
G05
G00X11.3686Y-2.0428
M15
G01X11.3686Y-2.0428
M16
G05
G00X11.4001Y-1.9956
M15
G01X11.4001Y-1.9956
M16
G05
G00X11.4316Y-2.0428
M15
G01X11.4316Y-2.0428
M16
G05
G00X11.5123Y-1.8204
M15
G01X11.5123Y-1.8676
M16
G05
T0
M30
