M48
; DRILL file {KiCad 5.99.0-unknown-281d77f~86~ubuntu18.04.1} date Fri 27 Sep 2019 10:58:52 AM IST
; FORMAT={-:-/ absolute / inch / decimal}
; #@! TF.CreationDate,2019-09-27T10:58:52+01:00
; #@! TF.GenerationSoftware,Kicad,Pcbnew,5.99.0-unknown-281d77f~86~ubuntu18.04.1
; #@! TF.FileFunction,NonPlated,1,2,NPTH
FMAT,2
INCH
T1C0.0670
T2C0.0689
T3C0.1200
T4C0.1570
%
G90
G05
T1
X12.3623Y-4.406
X12.7623Y-4.406
T2
X3.081Y-4.031
X3.481Y-4.031
X6.7373Y-6.281
X7.1373Y-6.281
X4.7685Y-4.781
X5.1685Y-4.781
X6.831Y-4.031
X7.231Y-4.031
X7.0185Y-4.781
X7.4185Y-4.781
X11.331Y-4.031
X11.731Y-4.031
X9.2685Y-4.781
X9.6685Y-4.781
X12.456Y-5.531
X12.856Y-5.531
X9.456Y-3.281
X9.856Y-3.281
X10.206Y-3.281
X10.606Y-3.281
X11.7998Y-5.531
X12.1998Y-5.531
X12.081Y-3.281
X12.481Y-3.281
X3.831Y-4.031
X4.231Y-4.031
X5.8935Y-5.531
X6.2935Y-5.531
X5.706Y-3.281
X6.106Y-3.281
X7.581Y-4.031
X7.981Y-4.031
X11.5185Y-4.781
X11.9185Y-4.781
X10.7685Y-4.781
X11.1685Y-4.781
X10.956Y-3.281
X11.356Y-3.281
X11.4248Y-5.531
X11.8248Y-5.531
X10.4873Y-6.281
X10.8873Y-6.281
X3.456Y-3.281
X3.856Y-3.281
X8.331Y-4.031
X8.731Y-4.031
X12.2685Y-4.031
X12.6685Y-4.031
X7.956Y-3.281
X8.356Y-3.281
X2.8935Y-5.531
X3.2935Y-5.531
X2.0498Y-6.281
X2.4498Y-6.281
X12.456Y-3.281
X12.856Y-3.281
X4.581Y-4.031
X4.981Y-4.031
X1.956Y-3.281
X2.356Y-3.281
X6.6435Y-5.531
X7.0435Y-5.531
X6.456Y-3.281
X6.856Y-3.281
X2.9873Y-6.281
X3.3873Y-6.281
X2.1435Y-4.031
X2.5435Y-4.031
X11.706Y-3.281
X12.106Y-3.281
X3.2685Y-4.781
X3.6685Y-4.781
X2.0498Y-5.531
X2.4498Y-5.531
X7.7685Y-4.781
X8.1685Y-4.781
X2.4248Y-5.531
X2.8248Y-5.531
X11.4248Y-6.281
X11.8248Y-6.281
X9.081Y-4.031
X9.481Y-4.031
X4.206Y-3.281
X4.606Y-3.281
X11.9873Y-4.781
X12.3873Y-4.781
X8.8935Y-5.531
X9.2935Y-5.531
X4.0185Y-4.781
X4.4185Y-4.781
X8.5185Y-4.781
X8.9185Y-4.781
X3.6435Y-5.531
X4.0435Y-5.531
X12.3623Y-6.281
X12.7623Y-6.281
X5.331Y-4.031
X5.731Y-4.031
X5.5185Y-4.781
X5.9185Y-4.781
X9.831Y-4.031
X10.231Y-4.031
X2.2373Y-4.781
X2.6373Y-4.781
X9.6435Y-5.531
X10.0435Y-5.531
X4.3935Y-5.531
X4.7935Y-5.531
X6.2685Y-4.781
X6.6685Y-4.781
X2.706Y-3.281
X3.106Y-3.281
X4.956Y-3.281
X5.356Y-3.281
X5.1435Y-5.531
X5.5435Y-5.531
X7.3935Y-5.531
X7.7935Y-5.531
X7.206Y-3.281
X7.606Y-3.281
X10.0185Y-4.781
X10.4185Y-4.781
X3.9248Y-6.281
X4.3248Y-6.281
X6.081Y-4.031
X6.481Y-4.031
X10.581Y-4.031
X10.981Y-4.031
X9.5498Y-6.281
X9.9498Y-6.281
X8.706Y-3.281
X9.106Y-3.281
X8.1435Y-5.531
X8.5435Y-5.531
X10.3935Y-5.531
X10.7935Y-5.531
T3
X4.9688Y-6.556
X8.9058Y-6.556
X11.5298Y-5.256
X12.4698Y-5.256
X11.811Y-3.006
X12.751Y-3.006
X12.8373Y-3.936
X12.8373Y-4.876
X2.1548Y-5.256
X3.0948Y-5.256
X11.7173Y-4.506
X12.6573Y-4.506
T4
X10.5935Y-5.531
X3.281Y-4.031
X4.9688Y-5.956
X6.9373Y-6.281
X8.9058Y-5.956
X4.9685Y-4.781
X7.031Y-4.031
X7.2185Y-4.781
X11.531Y-4.031
X9.4685Y-4.781
X12.656Y-5.531
X9.656Y-3.281
X10.406Y-3.281
X11.5298Y-5.856
X11.9998Y-5.531
X12.4698Y-5.856
X11.811Y-3.606
X12.281Y-3.281
X12.751Y-3.606
X4.031Y-4.031
X6.0935Y-5.531
X5.906Y-3.281
X7.781Y-4.031
X11.7185Y-4.781
X10.9685Y-4.781
X11.156Y-3.281
X11.6248Y-5.531
X10.6873Y-6.281
X3.656Y-3.281
X8.531Y-4.031
X12.4685Y-4.031
X8.156Y-3.281
X3.0935Y-5.531
X2.2498Y-6.281
X12.656Y-3.281
X4.781Y-4.031
X2.156Y-3.281
X6.8435Y-5.531
X6.656Y-3.281
X12.2373Y-3.936
X12.2373Y-4.876
X12.5623Y-4.406
X3.1873Y-6.281
X2.3435Y-4.031
X11.906Y-3.281
X3.4685Y-4.781
X2.2498Y-5.531
X7.9685Y-4.781
X2.1548Y-5.856
X2.6248Y-5.531
X3.0948Y-5.856
X11.6248Y-6.281
X9.281Y-4.031
X4.406Y-3.281
X11.7173Y-5.106
X12.1873Y-4.781
X12.6573Y-5.106
X9.0935Y-5.531
X4.2185Y-4.781
X8.7185Y-4.781
X3.8435Y-5.531
X12.5623Y-6.281
X5.531Y-4.031
X5.7185Y-4.781
X10.031Y-4.031
X2.4373Y-4.781
X9.8435Y-5.531
X4.5935Y-5.531
X6.4685Y-4.781
X2.906Y-3.281
X5.156Y-3.281
X5.3435Y-5.531
X7.5935Y-5.531
X7.406Y-3.281
X10.2185Y-4.781
X4.1248Y-6.281
X6.281Y-4.031
X10.781Y-4.031
X9.7498Y-6.281
X8.906Y-3.281
X8.3435Y-5.531
T0
M30
